<svg width="160" height="160" viewBox="0 0 160 160" fill="none" xmlns="http://www.w3.org/2000/svg">
<g clip-path="url(#clip0_322_19)">
<rect width="160" height="160" rx="7" fill="black"/>
<path d="M147.046 144.15L94.0562 74.4593L140.901 16.3144C141.61 15.4193 141.689 14.2777 141.058 13.3306C140.76 12.8667 140.312 12.4789 139.765 12.2091C139.218 11.9393 138.592 11.7978 137.954 11.7998H99.4449C98.279 11.7998 97.1602 12.2928 96.5142 13.0971L53.987 65.8841V14.7187C53.987 13.1101 52.3956 11.8128 50.4575 11.8128H15.9504C13.9966 11.8128 12.4209 13.1101 12.4209 14.7187V145.694C12.4209 147.303 13.9966 148.6 15.9504 148.6H50.4575C52.3956 148.6 53.987 147.303 53.987 145.694V83.3587L102.549 147.238C103.195 148.081 104.33 148.6 105.543 148.6H144.052C145.328 148.6 146.526 148.029 147.14 147.095C147.755 146.174 147.723 145.045 147.046 144.15Z" fill="white"/>
</g>
<defs>
<clipPath id="clip0_322_19">
<rect width="160" height="160" rx="7" fill="white"/>
</clipPath>
</defs>
</svg>
